<?xml version="1.0" encoding="UTF-8"?>
<svg class="icon icon-link" xmlns="http://www.w3.org/2000/svg" viewBox="0 0 14 14">
    <path fill="#B2B2B2" fill-rule="nonzero" d="M10.6 0c1.3.076 2.47.717 3.076 2.143.616 1.448.342 2.795-.72 3.946-.752.813-1.56 1.576-2.35 2.354-.342.34-.891.35-1.188.038-.3-.316-.268-.75.093-1.112.775-.778 1.56-1.545 2.327-2.33 1.155-1.182.642-3.062-.954-3.486-.663-.176-1.3-.054-1.805.416-.812.756-1.576 1.56-2.385 2.317-.172.16-.455.299-.677.285-.595-.037-.896-.757-.484-1.186A51.728 51.728 0 0 1 8.27.703C8.848.183 9.601.005 10.6 0zM0 10.403c.006-.994.352-1.854 1.049-2.562.769-.783 1.55-1.554 2.33-2.327.37-.367.825-.395 1.139-.08.326.33.294.744-.092 1.132-.742.745-1.497 1.48-2.232 2.233-.909.929-.947 2.183-.11 3.026.802.806 2.127.81 2.965-.006.761-.743 1.502-1.507 2.262-2.25.456-.446 1.149-.287 1.27.313.043.216-.044.541-.194.7-.825.87-1.65 1.746-2.549 2.536-1.1.966-2.39 1.126-3.735.54-1.3-.566-2.1-1.842-2.103-3.255zm10.071-5.67c-.048.09-.104.286-.23.414a712.346 712.346 0 0 1-4.563 4.59c-.325.325-.787.303-1.092-.005-.308-.311-.3-.738.043-1.082 1.5-1.504 3.006-3.005 4.51-4.504.243-.243.53-.345.862-.2.297.128.448.364.47.787z"/>
</svg>
