<svg width="38" height="15" viewBox="0 0 38 15" fill="none" xmlns="http://www.w3.org/2000/svg">
<g clip-path="url(#clip0)">
<path fill-rule="evenodd" clip-rule="evenodd" d="M0.418245 2.605C0.418245 2.605 -0.236115 3.08667 0.0902238 3.905L4.35282 14.6267C4.35282 14.6267 4.73971 15.0183 5.50005 14.9517C6.26039 14.885 11.0747 13.6517 11.0747 13.6517C11.0747 13.6517 11.6366 13.4083 11.7308 13.0017C11.825 12.595 10.9116 0.655005 10.9116 0.655005C10.9116 0.655005 10.9031 -0.0666616 10.4204 0.00500507C9.93591 0.0766717 0.418245 2.605 0.418245 2.605Z" fill="#E8423F"/>
<path fill-rule="evenodd" clip-rule="evenodd" d="M1.07422 4.22822L1.56541 6.66488L4.75983 5.65155L6.53283 13.1415L9.45306 12.4182L7.68006 4.87655L10.7483 4.06655L10.2554 1.62988L1.07422 4.22822Z" fill="white"/>
<path fill-rule="evenodd" clip-rule="evenodd" d="M20.5865 3.74119C20.5865 3.74119 18.9296 3.40286 18.6184 3.74119C18.3072 4.07952 17.996 4.70952 17.9624 5.36619C17.9304 6.02286 16.8891 11.6329 17.6343 12.3512C18.0549 12.7562 23.1804 14.7779 24.3562 14.9512C25.5321 15.1245 25.8315 14.7895 25.8315 14.7895L29.9309 5.85452C29.9309 5.85452 30.1816 5.01452 29.7678 5.04286C29.3523 5.06786 20.5865 3.74119 20.5865 3.74119Z" fill="#9680BA"/>
<path d="M12.8304 2.60156C12.5226 2.60156 12.0264 2.64656 11.7202 2.8999C11.5503 3.0399 11.303 3.46156 11.1533 3.8449C11.3081 5.93156 11.5015 8.6149 11.6226 10.5399C13.293 10.9499 15.9054 11.4849 17.421 11.7882C17.162 10.1582 17.9358 5.9299 17.9644 5.3649C17.9963 4.70823 18.3092 4.07823 18.6204 3.7399C18.6995 3.65323 18.8677 3.61156 19.0746 3.59656C19.0376 3.3699 18.9905 3.17823 18.9165 3.0299C18.7735 2.7399 18.0838 2.61323 17.9762 2.61323C17.9745 2.61323 17.9745 2.61323 17.9728 2.61323C17.9391 2.61323 17.3874 2.6149 16.6658 2.6149C15.2241 2.6149 13.1063 2.61323 13.1063 2.61323C13.1063 2.61323 12.9953 2.60156 12.8304 2.60156Z" fill="#5AA536"/>
<path d="M11.151 3.84668C11.1224 3.92168 11.0955 3.99668 11.0753 4.06668C10.6598 5.49835 9.76322 8.77835 9.76322 8.77835C9.76322 8.77835 9.49744 9.66668 10.0929 10.0767C10.2376 10.1767 10.823 10.345 11.622 10.54C11.4992 8.61668 11.3058 5.93335 11.151 3.84668Z" fill="#5B8435"/>
<path d="M19.0727 3.59863C18.8675 3.61363 18.6993 3.6553 18.6186 3.74197C18.3074 4.0803 17.9962 4.7103 17.9625 5.36697C17.9339 5.93197 17.1601 10.1603 17.4192 11.7903C18.1442 11.9353 18.6186 12.027 18.6186 12.027C18.6186 12.027 18.8406 12.1303 19.0828 12.1303C19.204 12.1303 19.3318 12.1053 19.4378 12.027C19.7591 11.7953 19.2258 4.89363 19.1232 3.9853C19.1081 3.84697 19.0913 3.71697 19.0727 3.59863Z" fill="#4B9037"/>
<path d="M27.8496 1.55469C27.5485 1.55469 27.2306 1.60635 27.1431 1.79135C27.0893 1.90469 27.0859 3.10802 27.1061 4.70302C28.4687 4.89635 29.557 5.04135 29.7505 5.04135C29.7572 5.04135 29.7622 5.04135 29.7656 5.04135C29.7723 5.04135 29.7791 5.04135 29.7858 5.04135C30.1727 5.04135 29.9305 5.85469 29.9305 5.85469L27.2575 11.683C27.2861 12.768 27.308 13.4897 27.308 13.4897C27.308 13.4897 27.5855 14.3064 27.964 14.4647C28.3425 14.623 34.0299 14.9514 34.0299 14.9514C34.0299 14.9514 34.1527 14.9964 34.2957 14.9964C34.4353 14.9964 34.5934 14.9547 34.6859 14.788C34.871 14.4497 37.9645 3.25469 37.9645 3.25469C37.9645 3.25469 38.1932 2.30302 37.4733 2.27969C36.7516 2.25635 28.536 1.68135 28.4552 1.62969C28.4165 1.60302 28.1406 1.55469 27.8496 1.55469Z" fill="#F5A939"/>
<path d="M27.1074 4.70312C27.136 6.89313 27.2084 9.82146 27.2588 11.6815L29.9318 5.85313C29.9318 5.85313 30.1757 5.03979 29.7871 5.03979C29.7804 5.03979 29.7736 5.03979 29.7669 5.03979C29.7619 5.03979 29.7568 5.03979 29.7518 5.03979C29.5566 5.04146 28.4683 4.89646 27.1074 4.70312Z" fill="#E39232"/>
<path fill-rule="evenodd" clip-rule="evenodd" d="M33.3737 5.85336C33.3737 5.85336 31.4039 5.41503 30.5864 5.69169C29.8395 5.94336 28.6872 6.71003 28.2902 8.12836C27.8613 9.66836 28.1792 11.5534 29.9303 11.865C31.6815 12.1767 32.7345 11.4084 32.7345 11.4084L32.4569 12.3134H34.7581L36.3242 4.23003L33.8649 4.06836L33.6479 5.94003L33.3737 5.85336ZM30.8656 8.16002C31.3131 7.40336 32.4502 7.08336 32.9111 7.40336C33.3552 7.71169 33.2156 8.53336 32.8102 9.24502C32.3997 9.96836 31.7252 10.1867 31.1953 10.0934C30.6251 9.99502 30.4081 8.92836 30.8656 8.16002Z" fill="white"/>
<path fill-rule="evenodd" clip-rule="evenodd" d="M20.0938 5.52867L20.7498 13.1637L22.8811 13.002L22.5531 9.91534C22.5531 9.91534 23.347 10.4053 24.1932 10.402C25.0393 10.4003 26.1108 9.89534 26.3245 9.102C26.5381 8.30867 26.6508 7.25867 26.4876 6.66534C26.3261 6.07201 25.5658 4.76867 24.5195 4.71534C23.4766 4.66367 22.9299 4.63701 21.569 5.04034C20.2081 5.44367 20.0938 5.52867 20.0938 5.52867ZM22.3394 7.577C22.2957 6.82367 22.506 6.497 22.9938 6.36367C23.6919 6.17534 24.2504 6.732 24.3866 7.45034C24.5229 8.167 24.1175 8.85034 23.6212 8.93867C23.1216 9.02867 22.3798 8.30534 22.3394 7.577Z" fill="#FFFFFE"/>
<path fill-rule="evenodd" clip-rule="evenodd" d="M15.3398 6.01516C15.3398 6.01516 14.1152 6.15516 13.0437 6.34016C11.9722 6.52349 11.1025 7.03683 10.9124 7.80183C10.7223 8.56683 10.8905 9.66849 11.7316 9.91349C12.5727 10.1585 14.1909 10.0752 14.1909 10.0752L14.63 9.08683C14.63 9.08683 13.3515 9.12349 13.37 8.61183C13.3801 8.33683 13.4272 8.01683 14.3541 7.80016C15.281 7.58349 15.466 7.66516 15.466 7.66516L14.9546 10.2685L17.3046 10.5602L18.1238 6.01183C18.1238 6.01183 18.403 4.75516 17.4745 4.19016C16.556 3.63349 17.0136 3.83349 15.6645 3.73683C14.2464 3.63683 12.714 3.73683 12.714 3.73683L12.2228 5.19849C12.2228 5.19849 14.9529 5.01849 15.1733 5.19849C15.3937 5.37849 15.5905 5.43016 15.5013 5.68516C15.4139 5.94683 15.3398 6.01516 15.3398 6.01516Z" fill="white"/>
</g>
<defs>
<clipPath id="clip0">
<rect width="38" height="15" fill="white"/>
</clipPath>
</defs>
</svg>
